<svg width="18" height="18" viewBox="0 0 18 18" fill="none" xmlns="http://www.w3.org/2000/svg">
<path d="M9 17.0625C4.5525 17.0625 0.9375 13.4475 0.9375 9C0.9375 4.5525 4.5525 0.9375 9 0.9375C13.4475 0.9375 17.0625 4.5525 17.0625 9C17.0625 13.4475 13.4475 17.0625 9 17.0625ZM9 2.0625C5.175 2.0625 2.0625 5.175 2.0625 9C2.0625 12.825 5.175 15.9375 9 15.9375C12.825 15.9375 15.9375 12.825 15.9375 9C15.9375 5.175 12.825 2.0625 9 2.0625Z" fill="#D0DCE7"/>
<path d="M9 12.5625C7.035 12.5625 5.4375 10.965 5.4375 9C5.4375 7.035 7.035 5.4375 9 5.4375C10.965 5.4375 12.5625 7.035 12.5625 9C12.5625 10.965 10.965 12.5625 9 12.5625ZM9 6.5625C7.6575 6.5625 6.5625 7.6575 6.5625 9C6.5625 10.3425 7.6575 11.4375 9 11.4375C10.3425 11.4375 11.4375 10.3425 11.4375 9C11.4375 7.6575 10.3425 6.5625 9 6.5625Z" fill="#D0DCE7"/>
<path d="M15.8775 6.56246C15.84 6.56246 15.795 6.55496 15.7575 6.54746C13.5525 6.06746 11.325 6.06746 9.12 6.54746C8.8125 6.61496 8.52 6.41996 8.4525 6.11996C8.385 5.81246 8.58 5.51996 8.88 5.45246C11.2425 4.93496 13.635 4.93496 15.9975 5.45246C16.2975 5.51996 16.4925 5.81996 16.425 6.11996C16.3725 6.38246 16.14 6.56246 15.8775 6.56246Z" fill="#D0DCE7"/>
<path d="M6.405 11.0625C6.2475 11.0625 6.09 10.995 5.9775 10.8675C4.4175 9.07499 3.2325 7.02749 2.445 4.77749L2.9625 4.54499L3.495 4.36499L3.51 4.40999C4.245 6.51749 5.3625 8.44499 6.8325 10.1325C7.035 10.365 7.0125 10.725 6.78 10.9275C6.6675 11.0175 6.5325 11.0625 6.405 11.0625Z" fill="#D0DCE7"/>
<path d="M8.16 17.0175C8.025 17.0175 7.89 16.9725 7.785 16.875C7.5525 16.665 7.5375 16.3125 7.7475 16.08C9.2475 14.43 10.3575 12.5175 11.0475 10.395C11.145 10.1025 11.475 9.90748 11.7675 10.005C12.06 10.1025 12.2325 10.3875 12.1425 10.68C11.385 13.02 10.1925 15.075 8.5875 16.845C8.4675 16.9575 8.31 17.0175 8.16 17.0175Z" fill="#D0DCE7"/>
</svg>
