<svg width="18" height="18" viewBox="0 0 18 18" fill="none" xmlns="http://www.w3.org/2000/svg">
<path d="M11.0625 17.0625H7.6875V11.625H6.97499C6.53999 11.625 6.1875 11.2725 6.1875 10.8375V9.41249C6.1875 8.97749 6.53999 8.625 6.97499 8.625H7.6875V6.75C7.6875 5.1975 8.9475 3.9375 10.5 3.9375H12.525C12.96 3.9375 13.3125 4.28999 13.3125 4.72499V6.52501C13.3125 6.96001 12.96 7.3125 12.525 7.3125H11.0625V8.625H12.4725C12.7125 8.625 12.93 8.73 13.08 8.91C13.23 9.09 13.29 9.33 13.245 9.5625L12.96 10.9875C12.885 11.355 12.5625 11.6175 12.1875 11.6175H11.0625V17.0625ZM8.8125 15.9375H9.9375V10.5H11.9175L12.0675 9.75H9.94501V6.97499C9.94501 6.53999 10.2975 6.1875 10.7325 6.1875H12.195V5.0625H10.5C9.57 5.0625 8.8125 5.82 8.8125 6.75V9.75H7.3125V10.5H8.8125V15.9375Z" fill="#D0DCE7"/>
<path d="M11.25 17.0625H6.75C2.6775 17.0625 0.9375 15.3225 0.9375 11.25V6.75C0.9375 2.6775 2.6775 0.9375 6.75 0.9375H11.25C15.3225 0.9375 17.0625 2.6775 17.0625 6.75V11.25C17.0625 15.3225 15.3225 17.0625 11.25 17.0625ZM6.75 2.0625C3.2925 2.0625 2.0625 3.2925 2.0625 6.75V11.25C2.0625 14.7075 3.2925 15.9375 6.75 15.9375H11.25C14.7075 15.9375 15.9375 14.7075 15.9375 11.25V6.75C15.9375 3.2925 14.7075 2.0625 11.25 2.0625H6.75Z" fill="#D0DCE7"/>
</svg>
