<svg width="18" height="18" viewBox="0 0 18 18" fill="none" xmlns="http://www.w3.org/2000/svg">
<path d="M10.905 8.52756C9.82499 8.52756 8.94749 7.65007 8.94749 6.57007V3.09006C8.94749 2.01006 9.82499 1.13257 10.905 1.13257C11.985 1.13257 12.8625 2.01006 12.8625 3.09006V6.57007C12.8625 7.65007 11.985 8.52756 10.905 8.52756ZM10.905 2.25757C10.4475 2.25757 10.0725 2.63256 10.0725 3.09006V6.57007C10.0725 7.02757 10.4475 7.40256 10.905 7.40256C11.3625 7.40256 11.7375 7.02757 11.7375 6.57007V3.09006C11.7375 2.63256 11.3625 2.25757 10.905 2.25757Z" fill="#D0DCE7"/>
<path d="M15.135 8.52747H13.9575C13.65 8.52747 13.395 8.27247 13.395 7.96497V6.78747C13.395 5.82747 14.175 5.04749 15.135 5.04749C16.095 5.04749 16.875 5.82747 16.875 6.78747C16.875 7.74747 16.095 8.52747 15.135 8.52747ZM14.5275 7.40247H15.1425C15.48 7.40247 15.7575 7.12497 15.7575 6.78747C15.7575 6.44997 15.48 6.17249 15.1425 6.17249C14.805 6.17249 14.5275 6.44997 14.5275 6.78747V7.40247Z" fill="#D0DCE7"/>
<path d="M6.375 8.87252H2.895C1.815 8.87252 0.9375 7.99503 0.9375 6.91503C0.9375 5.83503 1.815 4.95752 2.895 4.95752H6.375C7.455 4.95752 8.3325 5.83503 8.3325 6.91503C8.3325 7.99503 7.455 8.87252 6.375 8.87252ZM2.895 6.09003C2.4375 6.09003 2.0625 6.46504 2.0625 6.92254C2.0625 7.38004 2.4375 7.75503 2.895 7.75503H6.375C6.8325 7.75503 7.2075 7.38004 7.2075 6.92254C7.2075 6.46504 6.8325 6.09003 6.375 6.09003H2.895Z" fill="#D0DCE7"/>
<path d="M7.76999 4.40994H6.59249C5.63249 4.40994 4.85249 3.62994 4.85249 2.66994C4.85249 1.70994 5.63249 0.929932 6.59249 0.929932C7.55249 0.929932 8.33249 1.70994 8.33249 2.66994V3.84744C8.33249 4.16244 8.07749 4.40994 7.76999 4.40994ZM6.59249 2.06244C6.25499 2.06244 5.97749 2.33994 5.97749 2.67744C5.97749 3.01494 6.25499 3.29245 6.59249 3.29245H7.20749V2.67744C7.20749 2.33994 6.92999 2.06244 6.59249 2.06244Z" fill="#D0DCE7"/>
<path d="M7.07249 16.89C5.99249 16.89 5.11501 16.0125 5.11501 14.9325V11.4525C5.11501 10.3725 5.99249 9.495 7.07249 9.495C8.15249 9.495 9.02999 10.3725 9.02999 11.4525V14.9325C9.02999 16.0125 8.15249 16.89 7.07249 16.89ZM7.07249 10.62C6.61499 10.62 6.24001 10.995 6.24001 11.4525V14.9325C6.24001 15.39 6.61499 15.765 7.07249 15.765C7.52999 15.765 7.90499 15.39 7.90499 14.9325V11.4525C7.90499 10.9875 7.52999 10.62 7.07249 10.62Z" fill="#D0DCE7"/>
<path d="M2.8425 12.9676C1.8825 12.9676 1.10251 12.1876 1.10251 11.2276C1.10251 10.2676 1.8825 9.48755 2.8425 9.48755H4.02001C4.32751 9.48755 4.58251 9.74255 4.58251 10.05V11.2276C4.58251 12.1876 3.8025 12.9676 2.8425 12.9676ZM2.8425 10.6201C2.505 10.6201 2.22751 10.8976 2.22751 11.2351C2.22751 11.5726 2.505 11.85 2.8425 11.85C3.18 11.85 3.45751 11.5726 3.45751 11.2351V10.6201H2.8425Z" fill="#D0DCE7"/>
<path d="M15.0825 13.0575H11.6025C10.5225 13.0575 9.645 12.1799 9.645 11.0999C9.645 10.0199 10.5225 9.14246 11.6025 9.14246H15.0825C16.1625 9.14246 17.04 10.0199 17.04 11.0999C17.04 12.1799 16.1625 13.0575 15.0825 13.0575ZM11.6025 10.2675C11.145 10.2675 10.77 10.6424 10.77 11.0999C10.77 11.5574 11.145 11.9325 11.6025 11.9325H15.0825C15.54 11.9325 15.915 11.5574 15.915 11.0999C15.915 10.6424 15.54 10.2675 15.0825 10.2675H11.6025Z" fill="#D0DCE7"/>
<path d="M11.385 17.0475C10.425 17.0475 9.645 16.2675 9.645 15.3075V14.13C9.645 13.8225 9.9 13.5675 10.2075 13.5675H11.385C12.345 13.5675 13.125 14.3475 13.125 15.3075C13.125 16.2675 12.3375 17.0475 11.385 17.0475ZM10.77 14.6925V15.3075C10.77 15.645 11.0475 15.9225 11.385 15.9225C11.7225 15.9225 12 15.645 12 15.3075C12 14.97 11.7225 14.6925 11.385 14.6925H10.77Z" fill="#D0DCE7"/>
</svg>
