<svg width="18" height="18" viewBox="0 0 18 18" fill="none" xmlns="http://www.w3.org/2000/svg">
<path d="M12.75 15.5625H5.25C2.67 15.5625 0.9375 13.83 0.9375 11.25V6.75C0.9375 4.17 2.67 2.4375 5.25 2.4375H12.75C15.33 2.4375 17.0625 4.17 17.0625 6.75V11.25C17.0625 13.83 15.33 15.5625 12.75 15.5625ZM5.25 3.5625C3.315 3.5625 2.0625 4.815 2.0625 6.75V11.25C2.0625 13.185 3.315 14.4375 5.25 14.4375H12.75C14.685 14.4375 15.9375 13.185 15.9375 11.25V6.75C15.9375 4.815 14.685 3.5625 12.75 3.5625H5.25Z" fill="#D0DCE7"/>
<path d="M7.94252 11.6475C7.72502 11.6475 7.51501 11.595 7.32751 11.49C6.89251 11.2425 6.63748 10.74 6.63748 10.1175V7.89754C6.63748 7.27504 6.88501 6.77255 7.32751 6.52505C7.76251 6.27755 8.325 6.32253 8.8575 6.64503L10.71 7.75504C11.22 8.06254 11.5125 8.52005 11.5125 9.00755C11.5125 9.49505 11.22 9.95254 10.71 10.26L8.8575 11.37C8.55 11.55 8.23502 11.6475 7.94252 11.6475ZM7.94252 7.47754C7.91252 7.47754 7.89 7.48503 7.875 7.49253C7.8225 7.52253 7.76248 7.65753 7.76248 7.89003V10.1101C7.76248 10.3351 7.8225 10.47 7.875 10.5075C7.935 10.5375 8.07752 10.5225 8.27252 10.4025L10.125 9.29255C10.3125 9.18005 10.38 9.06754 10.38 9.00004C10.38 8.93254 10.3125 8.82753 10.125 8.70753L8.27252 7.59755C8.13752 7.51505 8.01752 7.47754 7.94252 7.47754Z" fill="#D0DCE7"/>
</svg>
