<svg width="20" height="20" viewBox="0 0 20 20" fill="none" xmlns="http://www.w3.org/2000/svg">
<g opacity="0.8">
<path d="M9.99999 16.0417C6.66666 16.0417 3.95833 13.3334 3.95833 10C3.95833 6.66671 6.66666 3.95837 9.99999 3.95837C13.3333 3.95837 16.0417 6.66671 16.0417 10C16.0417 13.3334 13.3333 16.0417 9.99999 16.0417ZM9.99999 5.20837C7.35833 5.20837 5.20833 7.35837 5.20833 10C5.20833 12.6417 7.35833 14.7917 9.99999 14.7917C12.6417 14.7917 14.7917 12.6417 14.7917 10C14.7917 7.35837 12.6417 5.20837 9.99999 5.20837Z" fill="#D0DCE7"/>
<path d="M9.99999 19.1334C9.54166 19.1334 9.16666 18.7917 9.16666 18.3334V18.2667C9.16666 17.8084 9.54166 17.4334 9.99999 17.4334C10.4583 17.4334 10.8333 17.8084 10.8333 18.2667C10.8333 18.725 10.4583 19.1334 9.99999 19.1334ZM15.95 16.7834C15.7333 16.7834 15.525 16.7 15.3583 16.5417L15.25 16.4334C14.925 16.1084 14.925 15.5834 15.25 15.2584C15.575 14.9334 16.1 14.9334 16.425 15.2584L16.5333 15.3667C16.8583 15.6917 16.8583 16.2167 16.5333 16.5417C16.375 16.7 16.1667 16.7834 15.95 16.7834ZM4.04999 16.7834C3.83333 16.7834 3.62499 16.7 3.45833 16.5417C3.13333 16.2167 3.13333 15.6917 3.45833 15.3667L3.56666 15.2584C3.89166 14.9334 4.41666 14.9334 4.74166 15.2584C5.06666 15.5834 5.06666 16.1084 4.74166 16.4334L4.63333 16.5417C4.47499 16.7 4.25833 16.7834 4.04999 16.7834ZM18.3333 10.8334H18.2667C17.8083 10.8334 17.4333 10.4584 17.4333 10C17.4333 9.54171 17.8083 9.16671 18.2667 9.16671C18.725 9.16671 19.1333 9.54171 19.1333 10C19.1333 10.4584 18.7917 10.8334 18.3333 10.8334ZM1.73333 10.8334H1.66666C1.20833 10.8334 0.833328 10.4584 0.833328 10C0.833328 9.54171 1.20833 9.16671 1.66666 9.16671C2.12499 9.16671 2.53333 9.54171 2.53333 10C2.53333 10.4584 2.19166 10.8334 1.73333 10.8334ZM15.8417 4.99171C15.625 4.99171 15.4167 4.90837 15.25 4.75004C14.925 4.42504 14.925 3.90004 15.25 3.57504L15.3583 3.46671C15.6833 3.14171 16.2083 3.14171 16.5333 3.46671C16.8583 3.79171 16.8583 4.31671 16.5333 4.64171L16.425 4.75004C16.2667 4.90837 16.0583 4.99171 15.8417 4.99171ZM4.15833 4.99171C3.94166 4.99171 3.73333 4.90837 3.56666 4.75004L3.45833 4.63337C3.13333 4.30837 3.13333 3.78337 3.45833 3.45837C3.78333 3.13337 4.30833 3.13337 4.63333 3.45837L4.74166 3.56671C5.06666 3.89171 5.06666 4.41671 4.74166 4.74171C4.58333 4.90837 4.36666 4.99171 4.15833 4.99171ZM9.99999 2.53337C9.54166 2.53337 9.16666 2.19171 9.16666 1.73337V1.66671C9.16666 1.20837 9.54166 0.833374 9.99999 0.833374C10.4583 0.833374 10.8333 1.20837 10.8333 1.66671C10.8333 2.12504 10.4583 2.53337 9.99999 2.53337Z" fill="#D0DCE7"/>
</g>
</svg>
