<svg width="22" height="22" viewBox="0 0 22 22" fill="none" xmlns="http://www.w3.org/2000/svg">
<path d="M16.2617 20.8541H5.73832C3.45582 20.8541 1.60416 19.0025 1.60416 16.72V10.5508C1.60416 8.2683 3.45582 6.41663 5.73832 6.41663H16.2617C18.5442 6.41663 20.3958 8.2683 20.3958 10.5508V11.8708C20.3958 12.2466 20.0842 12.5583 19.7083 12.5583H17.8567C17.5358 12.5583 17.2425 12.6775 17.0317 12.8975L17.0225 12.9066C16.7658 13.1541 16.6467 13.4933 16.6742 13.8416C16.7292 14.4466 17.3067 14.9324 17.9667 14.9324H19.7083C20.0842 14.9324 20.3958 15.2441 20.3958 15.6199V16.7108C20.3958 19.0024 18.5442 20.8541 16.2617 20.8541ZM5.73832 7.79163C4.21666 7.79163 2.97916 9.02913 2.97916 10.5508V16.72C2.97916 18.2416 4.21666 19.4791 5.73832 19.4791H16.2617C17.7833 19.4791 19.0208 18.2416 19.0208 16.72V16.3166H17.9667C16.5825 16.3166 15.4092 15.29 15.2992 13.97C15.2258 13.2183 15.5008 12.4758 16.0508 11.935C16.5275 11.4491 17.1692 11.1833 17.8567 11.1833H19.0208V10.5508C19.0208 9.02913 17.7833 7.79163 16.2617 7.79163H5.73832Z" fill="#232B32"/>
<path d="M2.29166 12.0634C1.91582 12.0634 1.60416 11.7517 1.60416 11.3759V7.18676C1.60416 5.82093 2.46582 4.58338 3.73999 4.09755L11.0183 1.34755C11.77 1.06338 12.6042 1.16426 13.255 1.62259C13.915 2.08092 14.3 2.82342 14.3 3.62092V7.10424C14.3 7.48007 13.9883 7.79174 13.6125 7.79174C13.2367 7.79174 12.925 7.48007 12.925 7.10424V3.62092C12.925 3.27258 12.76 2.95174 12.4667 2.75007C12.1733 2.54841 11.825 2.50257 11.495 2.6309L4.21666 5.3809C3.47416 5.66507 2.96999 6.38926 2.96999 7.18676V11.3759C2.97916 11.7609 2.66749 12.0634 2.29166 12.0634Z" fill="#232B32"/>
<path d="M17.9666 16.3167C16.5825 16.3167 15.4091 15.29 15.2991 13.97C15.2258 13.2092 15.5008 12.4667 16.0508 11.9258C16.5183 11.4492 17.16 11.1833 17.8475 11.1833H19.7541C20.6616 11.2108 21.3583 11.9258 21.3583 12.8058V14.6942C21.3583 15.5742 20.6616 16.2892 19.7816 16.3167H17.9666ZM19.7358 12.5583H17.8566C17.5358 12.5583 17.2425 12.6775 17.0316 12.8975C16.7658 13.1542 16.6375 13.5025 16.6741 13.8508C16.7291 14.4558 17.3066 14.9417 17.9666 14.9417H19.7633C19.8825 14.9417 19.9925 14.8317 19.9925 14.6942V12.8058C19.9925 12.6683 19.8825 12.5675 19.7358 12.5583Z" fill="#232B32"/>
<path d="M12.8333 11.6875H6.41666C6.04082 11.6875 5.72916 11.3758 5.72916 11C5.72916 10.6242 6.04082 10.3125 6.41666 10.3125H12.8333C13.2092 10.3125 13.5208 10.6242 13.5208 11C13.5208 11.3758 13.2092 11.6875 12.8333 11.6875Z" fill="#232B32"/>
</svg>
