<svg width="16" height="16" viewBox="0 0 16 16" fill="none" xmlns="http://www.w3.org/2000/svg">
<path d="M8.00001 15.2067C7.54001 15.2067 7.10668 14.9734 6.80001 14.5667L5.80001 13.2334C5.78001 13.2067 5.70001 13.1734 5.66668 13.1667H5.33334C2.55334 13.1667 0.833344 12.4134 0.833344 8.66671V5.33337C0.833344 2.38671 2.38668 0.833374 5.33334 0.833374H10.6667C13.6133 0.833374 15.1667 2.38671 15.1667 5.33337V8.66671C15.1667 11.6134 13.6133 13.1667 10.6667 13.1667H10.3333C10.28 13.1667 10.2333 13.1934 10.2 13.2334L9.20001 14.5667C8.89334 14.9734 8.46001 15.2067 8.00001 15.2067ZM5.33334 1.83337C2.94668 1.83337 1.83334 2.94671 1.83334 5.33337V8.66671C1.83334 11.68 2.86668 12.1667 5.33334 12.1667H5.66668C6.00668 12.1667 6.39334 12.36 6.60001 12.6334L7.60001 13.9667C7.83334 14.2734 8.16668 14.2734 8.40001 13.9667L9.40001 12.6334C9.62001 12.34 9.96668 12.1667 10.3333 12.1667H10.6667C13.0533 12.1667 14.1667 11.0534 14.1667 8.66671V5.33337C14.1667 2.94671 13.0533 1.83337 10.6667 1.83337H5.33334Z" fill="#D0DCE7"/>
</svg>
