<svg width="14" height="16" viewBox="0 0 14 16" fill="none" xmlns="http://www.w3.org/2000/svg">
<path d="M11.7133 15.1667C11.3733 15.1667 11 15.0667 10.64 14.86L7.38668 13.0534C7.19335 12.9467 6.81335 12.9467 6.62002 13.0534L3.36668 14.86C2.70668 15.2267 2.03335 15.2667 1.52002 14.96C1.00668 14.66 0.713348 14.0534 0.713348 13.3V3.90671C0.713348 2.21337 2.09335 0.833374 3.78668 0.833374H10.22C11.9133 0.833374 13.2933 2.21337 13.2933 3.90671V13.3C13.2933 14.0534 13 14.66 12.4867 14.96C12.2533 15.1 11.9867 15.1667 11.7133 15.1667ZM7.00002 11.9734C7.31335 11.9734 7.62002 12.04 7.86668 12.18L11.12 13.9867C11.46 14.18 11.7733 14.22 11.9733 14.1C12.1733 13.98 12.2867 13.6934 12.2867 13.3V3.90671C12.2867 2.76671 11.3533 1.83337 10.2133 1.83337H3.78668C2.64668 1.83337 1.71335 2.76671 1.71335 3.90671V13.3C1.71335 13.6934 1.82668 13.9867 2.02668 14.1C2.22668 14.2134 2.54002 14.18 2.88002 13.9867L6.13335 12.18C6.38002 12.04 6.68668 11.9734 7.00002 11.9734Z" fill="#D0DCE7"/>
</svg>
