<svg width="16" height="14" viewBox="0 0 16 14" fill="none" xmlns="http://www.w3.org/2000/svg">
<path d="M7.99998 13.4333C7.79331 13.4333 7.59331 13.4066 7.42665 13.3467C4.87998 12.4733 0.833313 9.37332 0.833313 4.79332C0.833313 2.45998 2.71998 0.56665 5.03998 0.56665C6.16665 0.56665 7.21998 1.00665 7.99998 1.79332C8.77998 1.00665 9.83331 0.56665 10.96 0.56665C13.28 0.56665 15.1666 2.46665 15.1666 4.79332C15.1666 9.37998 11.12 12.4733 8.57331 13.3467C8.40665 13.4066 8.20665 13.4333 7.99998 13.4333ZM5.03998 1.56665C3.27331 1.56665 1.83331 3.01332 1.83331 4.79332C1.83331 9.34665 6.21331 11.88 7.75331 12.4066C7.87331 12.4466 8.13331 12.4466 8.25331 12.4066C9.78665 11.88 14.1733 9.35332 14.1733 4.79332C14.1733 3.01332 12.7333 1.56665 10.9666 1.56665C9.95331 1.56665 9.01331 2.03998 8.40665 2.85998C8.21998 3.11332 7.79331 3.11332 7.60665 2.85998C6.98665 2.03332 6.05331 1.56665 5.03998 1.56665Z" fill="#D0DCE7"/>
</svg>
