<svg width="50" height="50" viewBox="0 0 50 50" fill="none" xmlns="http://www.w3.org/2000/svg">
<rect x="1" y="1" width="48" height="48" rx="24" fill="#FEDA03" stroke="#FEDA03" stroke-width="2"/>
<g clip-path="url(#clip0_37_259)">
<path fill-rule="evenodd" clip-rule="evenodd" d="M34.7927 21.7411C34.7927 23.564 33.7277 24.4707 32.5308 24.7856C33.9633 25.2151 35 26.389 35 28.25V31.6667H29.5337V28.4218C29.5337 27.4292 28.9494 27.0284 27.9504 27.0284H21.4663V31.6667H16V18H28.9871C32.248 18 34.7927 18.7062 34.7927 21.7411ZM21.4687 21.8183H28.8585C28.8695 21.8179 28.8806 21.8183 28.8917 21.8183C29.3998 21.8183 29.8118 22.2354 29.8118 22.75C29.8118 23.2646 29.3998 23.6817 28.8917 23.6817C28.8806 23.6817 28.8695 23.6815 28.8585 23.6811L21.4687 23.6817V21.8183Z" fill="black"/>
</g>
<defs>
<clipPath id="clip0_37_259">
<rect width="19" height="14" fill="white" transform="translate(16 18)"/>
</clipPath>
</defs>
</svg>
