<svg width="20" height="20" viewBox="0 0 20 20" fill="none" xmlns="http://www.w3.org/2000/svg">
<path d="M10 17.8333C9.21666 17.8333 8.43333 17.5667 7.84167 17.025L2.06666 11.7833C1.05833 10.8667 0.741659 9.19165 1.34999 7.97499L3.35 3.95832C3.85 2.95832 5.10833 2.17499 6.225 2.17499H13.775C14.8917 2.17499 16.15 2.95832 16.65 3.95832L18.65 7.97499C19.2583 9.19165 18.9417 10.8667 17.9333 11.7833L12.1583 17.025C11.5667 17.5583 10.7833 17.8333 10 17.8333ZM6.225 3.41665C5.575 3.41665 4.75833 3.92499 4.46666 4.50832L2.46667 8.52499C2.11667 9.23332 2.31667 10.3167 2.90833 10.85L8.68333 16.0917C9.39999 16.7417 10.6083 16.7417 11.3167 16.0917L17.0917 10.85C17.675 10.3167 17.8833 9.23332 17.5333 8.52499L15.5333 4.50832C15.2417 3.93332 14.425 3.42499 13.775 3.42499H6.225V3.41665Z" fill="#22C55C"/>
<path d="M10 12.7083C9.65833 12.7083 9.375 12.425 9.375 12.0833V7.08331C9.375 6.74165 9.65833 6.45831 10 6.45831C10.3417 6.45831 10.625 6.74165 10.625 7.08331V12.0833C10.625 12.425 10.3417 12.7083 10 12.7083Z" fill="#22C55C"/>
<path d="M13.3333 7.70831H6.66666C6.32499 7.70831 6.04166 7.42498 6.04166 7.08331C6.04166 6.74165 6.32499 6.45831 6.66666 6.45831H13.3333C13.675 6.45831 13.9583 6.74165 13.9583 7.08331C13.9583 7.42498 13.675 7.70831 13.3333 7.70831Z" fill="#22C55C"/>
</svg>
