<svg width="20" height="20" viewBox="0 0 20 20" fill="none" xmlns="http://www.w3.org/2000/svg">
<path d="M8.52553 18.2335C8.4672 18.2335 8.4089 18.2335 8.35057 18.2168C7.8589 18.1502 7.4422 17.7835 7.2172 17.2168L1.61722 3.21684C1.39222 2.6585 1.44224 2.11684 1.74224 1.72517C2.05057 1.3335 2.55887 1.15017 3.15887 1.2335L13.9672 2.67517C14.2589 2.71684 14.6006 2.8835 14.8089 3.09184L17.4172 5.70017C17.9256 6.21684 17.9839 7.0585 17.5339 7.6335L9.7172 17.5835C9.38386 18.0085 8.95887 18.2335 8.52553 18.2335ZM2.8839 2.46684C2.7839 2.46684 2.7339 2.49184 2.72557 2.50017C2.72557 2.5085 2.7089 2.60017 2.77557 2.7585L8.37554 16.7585C8.44221 16.9252 8.5172 16.9835 8.52553 16.9835C8.53387 16.9835 8.61719 16.9502 8.72553 16.8085L16.5422 6.8585C16.6005 6.79184 16.5922 6.64184 16.5256 6.5835L13.9172 3.97517C13.9006 3.9585 13.8255 3.92517 13.7922 3.91684L3.00053 2.47517C2.95886 2.46684 2.91724 2.46684 2.8839 2.46684Z" fill="#FB4343"/>
<path d="M8.33268 18.1249C8.31602 18.1249 8.29101 18.1249 8.27434 18.1249C7.93268 18.0916 7.67435 17.7916 7.70768 17.4499L8.51599 8.5999L2.09103 2.89157C1.83269 2.65824 1.80769 2.26657 2.04103 2.00824C2.27436 1.7499 2.66603 1.7249 2.92436 1.95824L9.58268 7.8749C9.73268 8.00824 9.80768 8.1999 9.79102 8.3999L8.95768 17.5666C8.92435 17.8832 8.64935 18.1249 8.33268 18.1249Z" fill="#FB4343"/>
<path d="M9.16606 8.95812C8.94106 8.95812 8.72442 8.83312 8.61608 8.62479C8.48275 8.38312 8.5327 8.08312 8.72437 7.89145L13.7244 2.89146C13.966 2.64979 14.3661 2.64979 14.6078 2.89146C14.8494 3.13312 14.8494 3.53312 14.6078 3.77479L11.0661 7.31645L16.5744 6.21645C16.9161 6.14979 17.2411 6.36645 17.3077 6.70812C17.3744 7.04979 17.1577 7.37479 16.8161 7.44145L9.28274 8.94979C9.24941 8.95812 9.20773 8.95812 9.16606 8.95812Z" fill="#FB4343"/>
</svg>
